<svg xmlns="http://www.w3.org/2000/svg">

  <!-- HOME -->
  <symbol id="icon-home" viewBox="0 -960 960 960">
    <path fill="currentColor" d="M160-120v-480l320-240 320 240v480H560v-280H400v280H160Z"/>
  </symbol>

  <!-- PORTFOLIO -->
  <symbol id="icon-portfolio" viewBox="0 -960 960 960">
    <path fill="currentColor" d="M160-120q-33 0-56.5-23.5T80-200v-440q0-33 23.5-56.5T160-720h160v-80q0-33 23.5-56.5T400-880h160q33 0 56.5 23.5T640-800v80h160q33 0 56.5 23.5T880-640v440q0 33-23.5 56.5T800-120H160Zm240-600h160v-80H400v80Z"/>
  </symbol>

  <!-- RESUME -->
  <symbol id="icon-resume" viewBox="0 -960 960 960">
    <path fill="currentColor" d="M200-120q-33 0-56.5-23.5T120-200v-560q0-33 23.5-56.5T200-840h168q14-36 44-58t68-22q38 0 68 22t44 58h168q33 0 56.5 23.5T840-760v560q0 33-23.5 56.5T760-120H200Zm301.5-678.5Q510-807 510-820t-8.5-21.5Q493-850 480-850t-21.5 8.5Q450-833 450-820t8.5 21.5Q467-790 480-790t21.5-8.5ZM579-481q41-41 41-99t-41-99q-41-41-99-41t-99 41q-41 41-41 99t41 99q41 41 99 41t99-41ZM200-200h560v-46q-54-53-125.5-83.5T480-360q-83 0-154.5 30.5T200-246v46Z"/>
  </symbol>

  <!-- BLOG -->
  <symbol id="icon-blog" viewBox="0 -960 960 960">
    <path fill="currentColor" d="M160-120q-33 0-56.5-23.5T80-200v-640l67 67 66-67 67 67 67-67 66 67 67-67 67 67 66-67 67 67 67-67 66 67 67-67v640q0 33-23.5 56.5T800-120H160Zm0-80h280v-240H160v240Zm360 0h280v-80H520v80Zm0-160h280v-80H520v80ZM160-520h640v-120H160v120Z"/>
  </symbol>

  <!-- CONTACT -->
  <symbol id="icon-contact" viewBox="0 -960 960 960">
    <path fill="currentColor" d="M80-80v-720q0-33 23.5-56.5T160-880h640q33 0 56.5 23.5T880-800v480q0 33-23.5 56.5T800-240H240L80-80Zm160-320h320v-80H240v80Zm0-120h480v-80H240v80Zm0-120h480v-80H240v80Z"/>
  </symbol>

  <!-- MOON -->
  <symbol id="icon-moon" viewBox="0 0 640 640">
    <path fill="currentColor" d="M320 64C178.6 64 64 178.6 64 320C64 461.4 178.6 576 320 576C388.8 576 451.3 548.8 497.3 504.6C504.6 497.6 506.7 486.7 502.6 477.5C498.5 468.3 488.9 462.6 478.8 463.4C473.9 463.8 469 464 464 464C362.4 464 280 381.6 280 280C280 207.9 321.5 145.4 382.1 115.2C391.2 110.7 396.4 100.9 395.2 90.8C394 80.7 386.6 72.5 376.7 70.3C358.4 66.2 339.4 64 320 64z"/>
  </symbol>

  <!-- SUN -->
  <symbol id="icon-sun" viewBox="0 -960 960 960">
    <path fill="currentColor" d="M440-800v-120h80v120h-80Zm0 760v-120h80v120h-80Zm360-400v-80h120v80H800Zm-760 0v-80h120v80H40Zm708-252-56-56 70-72 58 58-72 70ZM198-140l-58-58 72-70 56 56-70 72Zm564 0-70-72 56-56 72 70-58 58ZM212-692l-72-70 58-58 70 72-56 56Zm98 382q-70-70-70-170t70-170q70-70 170-70t170 70q70 70 70 170t-70 170q-70 70-170 70t-170-70Z"/>
  </symbol>

  <!-- GLOBE -->
  <symbol id="icon-globe" viewBox="0 -960 960 960">
    <path fill="currentColor" d="M480-80q-82 0-155-31.5t-127.5-86Q143-252 111.5-325T80-480q0-83 31.5-155.5t86-127Q252-817 325-848.5T480-880q83 0 155.5 31.5t127 86q54.5 54.5 86 127T880-480q0 82-31.5 155t-86 127.5q-54.5 54.5-127 86T480-80Zm0-82q26-36 45-75t31-83H404q12 44 31 83t45 75Zm-104-16q-18-33-31.5-68.5T322-320H204q29 50 72.5 87t99.5 55Zm208 0q56-18 99.5-55t72.5-87H638q-9 38-22.5 73.5T584-178ZM170-400h136q-3-20-4.5-39.5T300-480q0-21 1.5-40.5T306-560H170q-5 20-7.5 39.5T160-480q0 21 2.5 40.5T170-400Zm216 0h188q3-20 4.5-39.5T580-480q0-21-1.5-40.5T574-560H386q-3 20-4.5 39.5T380-480q0 21 1.5 40.5T386-400Zm268 0h136q5-20 7.5-39.5T800-480q0-21-2.5-40.5T790-560H654q3 20 4.5 39.5T660-480q0 21-1.5 40.5T654-400Zm-16-240h118q-29-50-72.5-87T584-782q18 33 31.5 68.5T638-640Zm-234 0h152q-12-44-31-83t-45-75q-26 36-45 75t-31 83Zm-200 0h118q9-38 22.5-73.5T376-782q-56 18-99.5 55T204-640Z"/>
  </symbol>

  <!-- HAMBURGUER MENU -->
  <symbol id="icon-menu" viewBox="0 0 640 640">
    <path fill="currentColor" d="M96 160C96 142.3 110.3 128 128 128L512 128C529.7 128 544 142.3 544 160C544 177.7 529.7 192 512 192L128 192C110.3 192 96 177.7 96 160zM96 320C96 302.3 110.3 288 128 288L512 288C529.7 288 544 302.3 544 320C544 337.7 529.7 352 512 352L128 352C110.3 352 96 337.7 96 320zM544 480C544 497.7 529.7 512 512 512L128 512C110.3 512 96 497.7 96 480C96 462.3 110.3 448 128 448L512 448C529.7 448 544 462.3 544 480z"/>
  </symbol>

</svg>